HIERARCHY
ROOT Pelvis
{
	OFFSET 0.000000 0.000000 0.000000
	CHANNELS 6 Xposition Yposition Zposition Xrotation Yrotation Zrotation
	JOINT LeftUpLeg_virtual
	{
		OFFSET 0.000000 0.000000 0.000000
		CHANNELS 3 Xrotation Yrotation Zrotation
		JOINT LeftUpLeg
		{
			OFFSET 18.735201 -5.666702 -4.541200
			CHANNELS 3 Xrotation Yrotation Zrotation
			JOINT LeftLeg
			{
				OFFSET -0.021200 -31.938179 0.493100
				CHANNELS 3 Xrotation Yrotation Zrotation
				JOINT LeftFoot
				{
					OFFSET 0.021200 -31.938179 -4.336299
					CHANNELS 3 Xrotation Yrotation Zrotation
					JOINT LeftToeBase
					{
						OFFSET 0.943001 -26.722000 15.023500
						CHANNELS 3 Xrotation Yrotation Zrotation
						End Site
						{
							OFFSET 0 0 0
						}
					}
				}
			}
		}
	}
	JOINT RightUpLeg_virtual
	{
		OFFSET 0.000000 0.000000 0.000000
		CHANNELS 3 Xrotation Yrotation Zrotation
		JOINT RightUpLeg
		{
			OFFSET -18.735201 -5.666702 -4.541200
			CHANNELS 3 Xrotation Yrotation Zrotation
			JOINT RightLeg
			{
				OFFSET 0.018946 -31.938133 0.493100
				CHANNELS 3 Xrotation Yrotation Zrotation
				JOINT RightFoot
				{
					OFFSET -0.018946 -31.938126 -4.336299
					CHANNELS 3 Xrotation Yrotation Zrotation
					JOINT RightToeBase
					{
						OFFSET -0.943001 -26.722004 15.023500
						CHANNELS 3 Xrotation Yrotation Zrotation
						End Site
						{
							OFFSET 0 0 0
						}
					}
				}
			}
		}
	}
	JOINT Hips_virtual
	{
		OFFSET 0.000000 0.000000 0.000000
		CHANNELS 3 Xrotation Yrotation Zrotation
		JOINT Hips
		{
			OFFSET -0.000000 -0.000000 -0.000000
			CHANNELS 3 Xrotation Yrotation Zrotation
			JOINT Spine
			{
				OFFSET 0.000000 10.199997 -0.299500
				CHANNELS 3 Xrotation Yrotation Zrotation
				JOINT Spine1
				{
					OFFSET 0.000000 11.900002 -1.516600
					CHANNELS 3 Xrotation Yrotation Zrotation
					JOINT Spine2
					{
						OFFSET 0.000000 13.600006 -2.842500
						CHANNELS 3 Xrotation Yrotation Zrotation
						JOINT Neck_virtual
						{
							OFFSET 0.000000 0.000000 0.000000
							CHANNELS 3 Xrotation Yrotation Zrotation
							JOINT Neck
							{
								OFFSET 0.000000 9.624100 -2.890100
								CHANNELS 3 Xrotation Yrotation Zrotation
								JOINT Head
								{
									OFFSET 0.000000 14.068802 -1.351900
									CHANNELS 3 Xrotation Yrotation Zrotation
									End Site
									{
										OFFSET 0 0 0
									}
								}
							}
						}
						JOINT LeftShoulder_virtual
						{
							OFFSET 0.000000 0.000000 0.000000
							CHANNELS 3 Xrotation Yrotation Zrotation
							JOINT LeftShoulder
							{
								OFFSET 15.263000 10.923401 -0.547700
								CHANNELS 3 Xrotation Yrotation Zrotation
								JOINT LeftArm
								{
									OFFSET 25.438599 -2.830597 -13.032500
									CHANNELS 3 Xrotation Yrotation Zrotation
									JOINT LeftForeArm
									{
										OFFSET 29.960503 0.000000 0.000000
										CHANNELS 3 Xrotation Yrotation Zrotation
										JOINT LeftHand
										{
											OFFSET 27.849251 0.000000 0.000000
											CHANNELS 3 Xrotation Yrotation Zrotation
											End Site
											{
												OFFSET 0 0 0
											}
										}
									}
								}
							}
						}
						JOINT RightShoulder_virtual
						{
							OFFSET 0.000000 0.000000 0.000000
							CHANNELS 3 Xrotation Yrotation Zrotation
							JOINT RightShoulder
							{
								OFFSET -15.263000 10.923401 -0.547700
								CHANNELS 3 Xrotation Yrotation Zrotation
								JOINT RightArm
								{
									OFFSET -25.438599 -2.830597 -13.032500
									CHANNELS 3 Xrotation Yrotation Zrotation
									JOINT RightForeArm
									{
										OFFSET -29.960503 0.000000 0.000000
										CHANNELS 3 Xrotation Yrotation Zrotation
										JOINT RightHand
										{
											OFFSET -27.849251 0.000000 0.000000
											CHANNELS 3 Xrotation Yrotation Zrotation
											End Site
											{
												OFFSET 0 0 0
											}
										}
									}
								}
							}
						}
					}
				}
			}
		}
	}
}
MOTION
Frames: 11
Frame Time: 0.03333333
-0.118680 91.928345 -1.949382 0.000000 0.000000 0.000000 11.926348 -7.717121 -1.456119 -24.623687 10.500984 13.657470 32.743118 -0.288575 -0.154555 -15.266569 0.085771 -5.854559 0.000000 0.000000 0.000000 9.463348 2.824986 3.584210 -17.128252 -5.583987 -10.385563 26.329812 -10.637982 3.097227 -21.267508 -16.073776 9.351529 0.000000 0.000000 0.000000 4.081457 2.459686 0.731092 3.840507 8.488668 -1.098418 11.673826 0.116698 -1.261963 5.059706 -0.016698 -0.675989 0.000000 0.000000 0.000000 8.096499 1.235995 -0.025557 2.503886 -0.277161 0.310482 0.000000 0.000000 0.000000 8.063208 -2.033222 -0.053254 6.566186 -26.325277 2.023543 -5.622553 6.185783 -44.495500 2.653760 -22.139764 -4.169916 0.000000 0.000000 0.000000 3.559740 -1.007979 0.319370 3.319762 1.041627 4.742868 -0.388980 10.629309 31.456248 3.622936 27.535674 0.582789 0.000000 0.000000 0.000000 
-0.109916 91.945282 -1.887490 0.000000 0.000000 0.000000 11.918227 -7.620872 -1.460374 -24.632626 10.522417 13.668678 32.671810 -0.296712 -0.147756 -15.324860 0.076189 -5.846286 0.000000 0.000000 0.000000 9.490927 2.891237 3.562665 -17.070142 -5.565742 -10.390548 26.253577 -10.636623 3.074037 -21.340614 -16.061972 9.319748 0.000000 0.000000 0.000000 4.103753 2.545390 0.718443 3.623457 8.271731 -1.130817 11.505480 0.084399 -1.280593 5.012332 -0.041061 -0.707723 0.000000 0.000000 0.000000 8.099517 1.201270 -0.039215 2.479307 -0.315649 0.316488 0.000000 0.000000 0.000000 8.003249 -2.016303 -0.066737 6.519386 -26.301286 1.987937 -5.375244 6.628317 -44.695815 2.608115 -21.688332 -4.170770 0.000000 0.000000 0.000000 3.581744 -1.018920 0.304695 3.314328 0.922931 4.838258 -0.114490 10.461388 31.569998 3.700457 27.220561 0.612411 0.000000 0.000000 0.000000 
-0.092318 91.961212 -1.835504 0.000000 0.000000 0.000000 11.906710 -7.517456 -1.465696 -24.645160 10.544946 13.679914 32.612825 -0.305793 -0.136286 -15.373344 0.062687 -5.831227 0.000000 0.000000 0.000000 9.514071 2.979527 3.542730 -17.015924 -5.541197 -10.390709 26.189058 -10.638724 3.051884 -21.405705 -16.053199 9.287520 0.000000 0.000000 0.000000 4.121691 2.629835 0.705346 3.393861 8.084818 -1.179831 11.353945 0.049680 -1.295753 4.969324 -0.067199 -0.734381 0.000000 0.000000 0.000000 8.093700 1.169497 -0.045833 2.452628 -0.350053 0.323328 0.000000 0.000000 0.000000 7.938053 -2.002803 -0.078438 6.465934 -26.266915 1.931123 -5.165105 6.974646 -44.931228 2.560449 -21.367209 -4.185674 0.000000 0.000000 0.000000 3.599643 -1.028361 0.298116 3.310754 0.824555 4.958687 0.087455 10.289756 31.808027 3.750010 26.959141 0.679428 0.000000 0.000000 0.000000 
-0.066879 91.976204 -1.792727 0.000000 0.000000 0.000000 11.891726 -7.409065 -1.472142 -24.661376 10.568075 13.690764 32.566871 -0.316283 -0.120663 -15.411499 0.045060 -5.810477 0.000000 0.000000 0.000000 9.533225 3.087483 3.524075 -16.965555 -5.511000 -10.386875 26.136776 -10.644215 3.031377 -21.462317 -16.047661 9.255843 0.000000 0.000000 0.000000 4.135452 2.712656 0.692057 3.157264 7.926462 -1.241702 11.220140 0.012233 -1.307045 4.930432 -0.095010 -0.755587 0.000000 0.000000 0.000000 8.080413 1.140165 -0.046401 2.424322 -0.380491 0.330347 0.000000 0.000000 0.000000 7.869012 -1.993224 -0.087824 6.407619 -26.223996 1.855872 -4.991779 7.233264 -45.197899 2.509438 -21.166379 -4.214749 0.000000 0.000000 0.000000 3.612397 -1.036381 0.299052 3.307576 0.744796 5.101533 0.214909 10.112701 32.164242 3.770973 26.753470 0.781485 0.000000 0.000000 0.000000 
-0.034663 91.990387 -1.758264 0.000000 0.000000 0.000000 11.873527 -7.297937 -1.479741 -24.681022 10.591366 13.700827 32.534080 -0.328729 -0.101385 -15.439313 0.023036 -5.785144 0.000000 0.000000 0.000000 9.549017 3.212083 3.506573 -16.918664 -5.476038 -10.379709 26.096717 -10.653319 3.012918 -21.510368 -16.045788 9.225220 0.000000 0.000000 0.000000 4.145452 2.793857 0.678864 2.920462 7.795864 -1.312227 11.104461 -0.028024 -1.313982 4.895297 -0.124314 -0.770987 0.000000 0.000000 0.000000 8.060992 1.112737 -0.041832 2.394868 -0.407141 0.336985 0.000000 0.000000 0.000000 7.797427 -1.987945 -0.094476 6.346147 -26.174163 1.765013 -4.855459 7.412463 -45.492335 2.453706 -21.076391 -4.258188 0.000000 0.000000 0.000000 3.619936 -1.042957 0.306774 3.304322 0.682584 5.263425 0.269201 9.930437 32.628968 3.764011 26.606232 0.915047 0.000000 0.000000 0.000000 
0.003275 92.003937 -1.730972 0.000000 0.000000 0.000000 11.852671 -7.186050 -1.488538 -24.703503 10.614523 13.709722 32.513968 -0.343623 -0.078950 -15.457273 -0.003577 -5.756308 0.000000 0.000000 0.000000 9.562256 3.350005 3.490349 -16.874619 -5.437353 -10.369609 26.068288 -10.666475 2.996641 -21.550208 -16.048113 9.195611 0.000000 0.000000 0.000000 4.152222 2.873666 0.666043 2.690520 7.692910 -1.387257 11.006690 -0.070983 -1.316084 4.863417 -0.154867 -0.780297 0.000000 0.000000 0.000000 8.036610 1.086672 -0.032832 2.364714 -0.430222 0.342854 0.000000 0.000000 0.000000 7.724424 -1.987220 -0.098093 6.283051 -26.118847 1.661331 -4.757205 7.519909 -45.811575 2.391818 -21.088730 -4.316226 0.000000 0.000000 0.000000 3.623025 -1.047966 0.320477 3.301418 0.637599 5.440673 0.254736 9.745113 33.189808 3.730998 26.520774 1.075713 0.000000 0.000000 0.000000 
0.045936 92.017044 -1.709454 0.000000 0.000000 0.000000 11.829993 -7.074910 -1.498634 -24.727891 10.637448 13.717062 32.505492 -0.361282 -0.053880 -15.466285 -0.034764 -5.724980 0.000000 0.000000 0.000000 9.573876 3.497997 3.475763 -16.832550 -5.396040 -10.356683 26.050386 -10.684223 2.982401 -21.582556 -16.055150 9.166486 0.000000 0.000000 0.000000 4.156276 2.952321 0.653839 2.473691 7.617790 -1.463043 10.925969 -0.116417 -1.312957 4.834133 -0.186400 -0.783355 0.000000 0.000000 0.000000 8.008218 1.061425 -0.019835 2.334259 -0.449986 0.347780 0.000000 0.000000 0.000000 7.650897 -1.991207 -0.098481 6.219645 -26.059318 1.547530 -4.699104 7.562391 -46.153115 2.322228 -21.195962 -4.389128 0.000000 0.000000 0.000000 3.623008 -1.051218 0.339360 3.299946 0.610197 5.629710 0.178206 9.560382 33.832830 3.674690 26.500741 1.258646 0.000000 0.000000 0.000000 
0.092389 92.029922 -1.692127 0.000000 0.000000 0.000000 11.806516 -6.965460 -1.510195 -24.752980 10.660228 13.722457 32.507134 -0.381781 -0.026735 -15.467576 -0.070237 -5.692083 0.000000 0.000000 0.000000 9.584870 3.653175 3.463374 -16.791438 -5.353147 -10.340761 26.041469 -10.707057 2.969791 -21.608468 -16.067262 9.136920 0.000000 0.000000 0.000000 4.157980 3.029864 0.642473 2.274537 7.570431 -1.536385 10.860862 -0.164050 -1.304343 4.806655 -0.218649 -0.780138 0.000000 0.000000 0.000000 7.976544 1.036455 -0.003015 2.303844 -0.466716 0.351793 0.000000 0.000000 0.000000 7.577511 -1.999999 -0.095526 6.157021 -25.996771 1.426254 -4.684154 7.545796 -46.514777 2.243240 -21.391594 -4.477163 0.000000 0.000000 0.000000 3.621532 -1.052518 0.362714 3.301347 0.601133 5.827470 0.047523 9.380602 34.543511 3.598268 26.549370 1.459007 0.000000 0.000000 0.000000 
0.141791 92.042809 -1.677347 0.000000 0.000000 0.000000 11.783373 -6.858153 -1.523432 -24.777387 10.683104 13.725512 32.517048 -0.404948 0.001901 -15.462561 -0.109442 -5.658424 0.000000 0.000000 0.000000 9.596226 3.813171 3.453832 -16.750201 -5.309600 -10.321494 26.039695 -10.735343 2.958213 -21.629245 -16.084621 9.105773 0.000000 0.000000 0.000000 4.157473 3.106055 0.632159 2.095413 7.550047 -1.604637 10.809451 -0.213620 -1.290118 4.780111 -0.251385 -0.770759 0.000000 0.000000 0.000000 7.942174 1.011237 0.017650 2.273764 -0.480713 0.355076 0.000000 0.000000 0.000000 7.504753 -2.013629 -0.089166 6.096106 -25.932357 1.300148 -4.715797 7.475270 -46.894583 2.153077 -21.669764 -4.580581 0.000000 0.000000 0.000000 3.620297 -1.051735 0.389990 3.307126 0.611197 6.031648 -0.129157 9.209935 35.307638 3.504900 26.668656 1.672305 0.000000 0.000000 0.000000 
0.193421 92.055939 -1.663527 0.000000 0.000000 0.000000 11.761683 -6.753140 -1.538556 -24.799679 10.706364 13.725854 32.533229 -0.430422 0.031457 -15.452728 -0.151650 -5.624681 0.000000 0.000000 0.000000 9.608868 3.976125 3.447755 -16.707799 -5.266173 -10.298478 26.043078 -10.769255 2.946954 -21.646316 -16.107147 9.071827 0.000000 0.000000 0.000000 4.154650 3.180412 0.623117 1.936371 7.555054 -1.665605 10.769519 -0.264900 -1.270284 4.753621 -0.284428 -0.755450 0.000000 0.000000 0.000000 7.905650 0.985301 0.042248 2.244297 -0.492292 0.357895 0.000000 0.000000 0.000000 7.433017 -2.032074 -0.079362 6.037719 -25.867190 1.171909 -4.797114 7.355422 -47.290625 2.050070 -22.024889 -4.699546 0.000000 0.000000 0.000000 3.620895 -1.048844 0.420828 3.318645 0.640848 6.240815 -0.344035 9.051613 36.111862 3.397465 26.858703 1.894649 0.000000 0.000000 0.000000 
0.246713 92.069603 -1.649209 0.000000 0.000000 0.000000 11.742463 -6.650505 -1.555710 -24.818476 10.730268 13.723191 32.553665 -0.457775 0.061415 -15.439501 -0.196093 -5.591410 0.000000 0.000000 0.000000 9.623591 4.140547 3.445620 -16.663290 -5.223490 -10.271394 26.049657 -10.808753 2.935305 -21.661084 -16.134572 9.034000 0.000000 0.000000 0.000000 4.149185 3.252386 0.615584 1.795470 7.583331 -1.717443 10.738731 -0.317697 -1.244947 4.726379 -0.317642 -0.734541 0.000000 0.000000 0.000000 7.867610 0.958263 0.070799 2.215752 -0.501763 0.360517 0.000000 0.000000 0.000000 7.362721 -2.055233 -0.066078 5.982653 -25.802264 1.044289 -4.929818 7.190522 -47.701116 1.932982 -22.451353 -4.834077 0.000000 0.000000 0.000000 3.624736 -1.043945 0.455042 3.336997 0.689956 6.454335 -0.589800 8.907712 36.944200 3.278480 27.117521 2.122906 0.000000 0.000000 0.000000 
